<mxfile host="65bd71144e">
    <diagram id="gSHTPxTIQcw8EX2FfA_m" name="Page-1">
        <mxGraphModel dx="1846" dy="749" grid="1" gridSize="10" guides="1" tooltips="1" connect="1" arrows="1" fold="1" page="1" pageScale="1" pageWidth="850" pageHeight="1100" math="0" shadow="0">
            <root>
                <mxCell id="0"/>
                <mxCell id="1" parent="0"/>
                <mxCell id="38" style="edgeStyle=none;html=1;strokeColor=default;strokeWidth=1;startSize=6;sourcePerimeterSpacing=0;" edge="1" parent="1" source="5" target="14">
                    <mxGeometry relative="1" as="geometry"/>
                </mxCell>
                <mxCell id="5" value="" style="sketch=0;aspect=fixed;html=1;points=[];align=center;image;fontSize=12;image=img/lib/mscae/Application_Gateway.svg;" vertex="1" parent="1">
                    <mxGeometry x="-176" y="190" width="50" height="50" as="geometry"/>
                </mxCell>
                <mxCell id="6" value="" style="sketch=0;aspect=fixed;html=1;points=[];align=center;image;fontSize=12;image=img/lib/mscae/VM_Linux.svg;" vertex="1" parent="1">
                    <mxGeometry x="-303.31" y="560" width="50" height="46" as="geometry"/>
                </mxCell>
                <mxCell id="7" value="" style="aspect=fixed;html=1;points=[];align=center;image;fontSize=12;image=img/lib/azure2/compute/VM_Scale_Sets.svg;" vertex="1" parent="1">
                    <mxGeometry x="-233.44" y="460" width="48" height="48" as="geometry"/>
                </mxCell>
                <mxCell id="39" style="edgeStyle=none;html=1;strokeColor=default;strokeWidth=1;startSize=6;sourcePerimeterSpacing=0;" edge="1" parent="1" source="14" target="5">
                    <mxGeometry relative="1" as="geometry"/>
                </mxCell>
                <mxCell id="14" value="" style="sketch=0;aspect=fixed;html=1;points=[];align=center;image;fontSize=12;image=img/lib/mscae/App_Service_IPAddress.svg;" vertex="1" parent="1">
                    <mxGeometry x="-330" y="194" width="50" height="42" as="geometry"/>
                </mxCell>
                <mxCell id="16" value="" style="verticalLabelPosition=bottom;html=1;verticalAlign=top;align=center;strokeColor=none;fillColor=#00BEF2;shape=mxgraph.azure.virtual_network;pointerEvents=1;" vertex="1" parent="1">
                    <mxGeometry x="-245" y="70" width="50" height="27.500000000000004" as="geometry"/>
                </mxCell>
                <mxCell id="17" value="" style="verticalLabelPosition=bottom;html=1;verticalAlign=top;align=center;strokeColor=none;fillColor=#00BEF2;shape=mxgraph.azure.virtual_network;pointerEvents=1;" vertex="1" parent="1">
                    <mxGeometry x="230" y="206" width="50" height="27.500000000000004" as="geometry"/>
                </mxCell>
                <mxCell id="74" style="edgeStyle=none;html=1;strokeColor=default;strokeWidth=1;fontSize=11;startSize=6;sourcePerimeterSpacing=0;" edge="1" parent="1" source="19" target="72">
                    <mxGeometry relative="1" as="geometry"/>
                </mxCell>
                <mxCell id="19" value="" style="aspect=fixed;html=1;points=[];align=center;image;fontSize=12;image=img/lib/azure2/security/Key_Vaults.svg;" vertex="1" parent="1">
                    <mxGeometry x="80" y="560" width="50" height="50" as="geometry"/>
                </mxCell>
                <mxCell id="75" style="edgeStyle=none;html=1;entryX=0.02;entryY=0.476;entryDx=0;entryDy=0;entryPerimeter=0;strokeColor=default;strokeWidth=1;fontSize=11;startSize=6;sourcePerimeterSpacing=0;" edge="1" parent="1" source="21" target="22">
                    <mxGeometry relative="1" as="geometry"/>
                </mxCell>
                <mxCell id="21" value="" style="aspect=fixed;html=1;points=[];align=center;image;fontSize=12;image=img/lib/azure2/storage/Storage_Accounts.svg;" vertex="1" parent="1">
                    <mxGeometry x="290" y="560" width="52.5" height="42" as="geometry"/>
                </mxCell>
                <mxCell id="22" value="" style="sketch=0;aspect=fixed;html=1;points=[];align=center;image;fontSize=12;image=img/lib/mscae/BlobBlock.svg;" vertex="1" parent="1">
                    <mxGeometry x="390" y="562" width="50" height="42" as="geometry"/>
                </mxCell>
                <mxCell id="23" value="" style="aspect=fixed;html=1;points=[];align=center;image;fontSize=12;image=img/lib/azure2/general/Scale.svg;" vertex="1" parent="1">
                    <mxGeometry x="-228.19" y="380" width="35.5" height="35.5" as="geometry"/>
                </mxCell>
                <mxCell id="24" value="vNet - Web" style="text;html=1;align=center;verticalAlign=middle;resizable=0;points=[];autosize=1;strokeColor=none;fillColor=none;" vertex="1" parent="1">
                    <mxGeometry x="-260" y="100" width="80" height="30" as="geometry"/>
                </mxCell>
                <mxCell id="25" value="vNet - Admin" style="text;html=1;align=center;verticalAlign=middle;resizable=0;points=[];autosize=1;strokeColor=none;fillColor=none;" vertex="1" parent="1">
                    <mxGeometry x="210" y="236" width="90" height="30" as="geometry"/>
                </mxCell>
                <mxCell id="28" value="AutoScaler" style="text;html=1;align=center;verticalAlign=middle;resizable=0;points=[];autosize=1;strokeColor=none;fillColor=none;" vertex="1" parent="1">
                    <mxGeometry x="-250.44" y="408.75" width="80" height="30" as="geometry"/>
                </mxCell>
                <mxCell id="29" value="" style="sketch=0;aspect=fixed;html=1;points=[];align=center;image;fontSize=12;image=img/lib/mscae/VM_Linux.svg;opacity=30;" vertex="1" parent="1">
                    <mxGeometry x="-233.31" y="560" width="50" height="46" as="geometry"/>
                </mxCell>
                <mxCell id="30" value="" style="sketch=0;aspect=fixed;html=1;points=[];align=center;image;fontSize=12;image=img/lib/mscae/VM_Linux.svg;opacity=30;" vertex="1" parent="1">
                    <mxGeometry x="-165.56" y="560" width="50" height="46" as="geometry"/>
                </mxCell>
                <mxCell id="31" value="vmScaleSet&lt;br&gt;" style="text;html=1;align=center;verticalAlign=middle;resizable=0;points=[];autosize=1;strokeColor=none;fillColor=none;" vertex="1" parent="1">
                    <mxGeometry x="-255.44" y="506" width="90" height="30" as="geometry"/>
                </mxCell>
                <mxCell id="32" value="Public IP" style="text;html=1;align=center;verticalAlign=middle;resizable=0;points=[];autosize=1;strokeColor=none;fillColor=none;" vertex="1" parent="1">
                    <mxGeometry x="-340" y="232" width="70" height="30" as="geometry"/>
                </mxCell>
                <mxCell id="33" value="App Gateway&lt;br&gt;" style="text;html=1;align=center;verticalAlign=middle;resizable=0;points=[];autosize=1;strokeColor=none;fillColor=none;" vertex="1" parent="1">
                    <mxGeometry x="-200" y="236" width="100" height="30" as="geometry"/>
                </mxCell>
                <mxCell id="40" value="vm-instance&lt;br&gt;" style="text;html=1;align=center;verticalAlign=middle;resizable=0;points=[];autosize=1;strokeColor=none;fillColor=none;" vertex="1" parent="1">
                    <mxGeometry x="-324.44" y="602" width="90" height="30" as="geometry"/>
                </mxCell>
                <mxCell id="48" value="Private subnet" style="points=[[0,0],[0.25,0],[0.5,0],[0.75,0],[1,0],[1,0.25],[1,0.5],[1,0.75],[1,1],[0.75,1],[0.5,1],[0.25,1],[0,1],[0,0.75],[0,0.5],[0,0.25]];outlineConnect=0;html=1;whiteSpace=wrap;fontSize=12;fontStyle=0;container=1;pointerEvents=0;collapsible=0;recursiveResize=0;shape=mxgraph.aws4.group;grIcon=mxgraph.aws4.group_security_group;grStroke=0;verticalAlign=top;align=left;spacingLeft=30;opacity=15;fillColor=#0050ef;fontColor=#ffffff;strokeColor=#001DBC;" vertex="1" parent="1">
                    <mxGeometry x="-410" y="140" width="400" height="218" as="geometry"/>
                </mxCell>
                <mxCell id="49" value="&lt;font style=&quot;font-size: 11px;&quot;&gt;10.10.10.128 /26&lt;/font&gt;" style="text;html=1;align=center;verticalAlign=middle;resizable=0;points=[];autosize=1;strokeColor=none;fillColor=none;" vertex="1" parent="48">
                    <mxGeometry x="280" width="110" height="30" as="geometry"/>
                </mxCell>
                <mxCell id="46" value="" style="sketch=0;aspect=fixed;html=1;points=[];align=center;image;fontSize=12;image=img/lib/mscae/Network_Security_Groups_Classic.svg;" vertex="1" parent="48">
                    <mxGeometry x="360.94" y="160" width="28.12" height="38" as="geometry"/>
                </mxCell>
                <mxCell id="47" value="NSG&lt;br&gt;" style="text;html=1;align=center;verticalAlign=middle;resizable=0;points=[];autosize=1;strokeColor=none;fillColor=none;" vertex="1" parent="48">
                    <mxGeometry x="350" y="188" width="50" height="30" as="geometry"/>
                </mxCell>
                <mxCell id="51" value="Private subnet" style="points=[[0,0],[0.25,0],[0.5,0],[0.75,0],[1,0],[1,0.25],[1,0.5],[1,0.75],[1,1],[0.75,1],[0.5,1],[0.25,1],[0,1],[0,0.75],[0,0.5],[0,0.25]];outlineConnect=0;html=1;whiteSpace=wrap;fontSize=12;fontStyle=0;container=1;pointerEvents=0;collapsible=0;recursiveResize=0;shape=mxgraph.aws4.group;grIcon=mxgraph.aws4.group_security_group;grStroke=0;strokeColor=#2D7600;fillColor=#60a917;verticalAlign=top;align=left;spacingLeft=30;fontColor=#ffffff;dashed=0;opacity=10;" vertex="1" parent="1">
                    <mxGeometry x="-410" y="368" width="400" height="272" as="geometry"/>
                </mxCell>
                <mxCell id="52" value="10.10.10.64 /26" style="text;html=1;align=center;verticalAlign=middle;resizable=0;points=[];autosize=1;strokeColor=none;fillColor=none;fontSize=11;" vertex="1" parent="51">
                    <mxGeometry x="290" width="100" height="30" as="geometry"/>
                </mxCell>
                <mxCell id="3" value="" style="sketch=0;aspect=fixed;html=1;points=[];align=center;image;fontSize=12;image=img/lib/mscae/Network_Security_Groups_Classic.svg;" vertex="1" parent="51">
                    <mxGeometry x="360.2" y="210" width="29.6" height="40" as="geometry"/>
                </mxCell>
                <mxCell id="45" value="NSG&lt;br&gt;" style="text;html=1;align=center;verticalAlign=middle;resizable=0;points=[];autosize=1;strokeColor=none;fillColor=none;" vertex="1" parent="51">
                    <mxGeometry x="350" y="242" width="50" height="30" as="geometry"/>
                </mxCell>
                <mxCell id="56" value="Private subnet" style="points=[[0,0],[0.25,0],[0.5,0],[0.75,0],[1,0],[1,0.25],[1,0.5],[1,0.75],[1,1],[0.75,1],[0.5,1],[0.25,1],[0,1],[0,0.75],[0,0.5],[0,0.25]];outlineConnect=0;html=1;whiteSpace=wrap;fontSize=12;fontStyle=0;container=1;pointerEvents=0;collapsible=0;recursiveResize=0;shape=mxgraph.aws4.group;grIcon=mxgraph.aws4.group_security_group;grStroke=0;strokeColor=#3700CC;fillColor=#6a00ff;verticalAlign=top;align=left;spacingLeft=30;fontColor=#ffffff;dashed=0;opacity=10;" vertex="1" parent="1">
                    <mxGeometry x="80" y="266" width="370" height="230" as="geometry"/>
                </mxCell>
                <mxCell id="64" style="edgeStyle=none;html=1;entryX=-0.068;entryY=0.44;entryDx=0;entryDy=0;entryPerimeter=0;strokeColor=default;strokeWidth=1;fontSize=11;startSize=6;sourcePerimeterSpacing=0;" edge="1" parent="56" source="15" target="9">
                    <mxGeometry relative="1" as="geometry"/>
                </mxCell>
                <mxCell id="15" value="" style="sketch=0;aspect=fixed;html=1;points=[];align=center;image;fontSize=12;image=img/lib/mscae/App_Service_IPAddress.svg;" vertex="1" parent="56">
                    <mxGeometry x="40" y="72" width="50" height="42" as="geometry"/>
                </mxCell>
                <mxCell id="54" value="Public IP" style="text;html=1;align=center;verticalAlign=middle;resizable=0;points=[];autosize=1;strokeColor=none;fillColor=none;fontSize=11;" vertex="1" parent="56">
                    <mxGeometry x="30" y="110" width="70" height="30" as="geometry"/>
                </mxCell>
                <mxCell id="65" style="edgeStyle=none;html=1;entryX=0;entryY=0.543;entryDx=0;entryDy=0;entryPerimeter=0;strokeColor=default;strokeWidth=1;fontSize=11;startSize=6;sourcePerimeterSpacing=0;" edge="1" parent="56" source="9" target="8">
                    <mxGeometry relative="1" as="geometry"/>
                </mxCell>
                <mxCell id="9" value="" style="sketch=0;aspect=fixed;html=1;points=[];align=center;image;fontSize=12;image=img/lib/mscae/NetworkInterfaceCard.svg;" vertex="1" parent="56">
                    <mxGeometry x="150" y="72" width="44" height="50" as="geometry"/>
                </mxCell>
                <mxCell id="55" value="NIC&lt;br&gt;" style="text;html=1;align=center;verticalAlign=middle;resizable=0;points=[];autosize=1;strokeColor=none;fillColor=none;fontSize=11;" vertex="1" parent="56">
                    <mxGeometry x="152" y="114" width="40" height="30" as="geometry"/>
                </mxCell>
                <mxCell id="8" value="" style="sketch=0;aspect=fixed;html=1;points=[];align=center;image;fontSize=12;image=img/lib/mscae/VirtualMachineWindows.svg;" vertex="1" parent="56">
                    <mxGeometry x="260" y="72" width="50" height="46" as="geometry"/>
                </mxCell>
                <mxCell id="53" value="WinServer vm" style="text;html=1;align=center;verticalAlign=middle;resizable=0;points=[];autosize=1;strokeColor=none;fillColor=none;fontSize=11;" vertex="1" parent="56">
                    <mxGeometry x="240" y="118" width="90" height="30" as="geometry"/>
                </mxCell>
                <mxCell id="57" value="" style="sketch=0;aspect=fixed;html=1;points=[];align=center;image;fontSize=12;image=img/lib/mscae/Network_Security_Groups_Classic.svg;" vertex="1" parent="56">
                    <mxGeometry x="334.64" y="174" width="20.72" height="28" as="geometry"/>
                </mxCell>
                <mxCell id="58" value="&lt;font style=&quot;font-size: 11px;&quot;&gt;NSG&lt;/font&gt;" style="text;html=1;align=center;verticalAlign=middle;resizable=0;points=[];autosize=1;strokeColor=none;fillColor=none;" vertex="1" parent="56">
                    <mxGeometry x="320" y="194" width="50" height="30" as="geometry"/>
                </mxCell>
                <mxCell id="70" value="" style="rounded=0;whiteSpace=wrap;html=1;shadow=0;glass=0;dashed=1;sketch=0;strokeColor=#00FFFF;strokeWidth=2;fontSize=11;fillColor=none;gradientColor=none;" vertex="1" parent="56">
                    <mxGeometry y="-6" width="370" height="236" as="geometry"/>
                </mxCell>
                <mxCell id="71" value="10.20.20.0 /24" style="text;html=1;align=center;verticalAlign=middle;resizable=0;points=[];autosize=1;strokeColor=none;fillColor=none;fontSize=11;" vertex="1" parent="56">
                    <mxGeometry x="280" width="90" height="30" as="geometry"/>
                </mxCell>
                <mxCell id="60" value="" style="shape=flexArrow;endArrow=classic;startArrow=classic;html=1;strokeColor=default;strokeWidth=1;fontSize=11;startSize=6;sourcePerimeterSpacing=0;" edge="1" parent="1">
                    <mxGeometry width="100" height="100" relative="1" as="geometry">
                        <mxPoint y="360" as="sourcePoint"/>
                        <mxPoint x="80" y="360" as="targetPoint"/>
                    </mxGeometry>
                </mxCell>
                <mxCell id="61" value="PEERING&lt;br&gt;" style="text;html=1;align=center;verticalAlign=middle;resizable=0;points=[];autosize=1;strokeColor=none;fillColor=none;fontSize=11;" vertex="1" parent="1">
                    <mxGeometry x="10" y="368" width="70" height="30" as="geometry"/>
                </mxCell>
                <mxCell id="62" value="" style="rounded=0;whiteSpace=wrap;html=1;shadow=0;glass=0;dashed=1;sketch=0;strokeColor=#00FFFF;strokeWidth=2;fontSize=11;fillColor=none;gradientColor=none;" vertex="1" parent="1">
                    <mxGeometry x="-420" y="130" width="420" height="520" as="geometry"/>
                </mxCell>
                <mxCell id="73" style="edgeStyle=none;html=1;entryX=1;entryY=0.5;entryDx=0;entryDy=0;entryPerimeter=0;strokeColor=default;strokeWidth=1;fontSize=11;startSize=6;sourcePerimeterSpacing=0;" edge="1" parent="1" source="72" target="19">
                    <mxGeometry relative="1" as="geometry"/>
                </mxCell>
                <mxCell id="72" value="" style="sketch=0;html=1;aspect=fixed;strokeColor=none;shadow=0;align=center;verticalAlign=top;fillColor=#3B8DF1;shape=mxgraph.gcp2.lock;glass=0;dashed=1;strokeWidth=2;fontSize=11;" vertex="1" parent="1">
                    <mxGeometry x="171" y="560" width="39" height="50" as="geometry"/>
                </mxCell>
                <mxCell id="76" value="KV" style="text;html=1;align=center;verticalAlign=middle;resizable=0;points=[];autosize=1;strokeColor=none;fillColor=none;fontSize=11;" vertex="1" parent="1">
                    <mxGeometry x="85" y="602" width="40" height="30" as="geometry"/>
                </mxCell>
                <mxCell id="77" value="Secrets" style="text;html=1;align=center;verticalAlign=middle;resizable=0;points=[];autosize=1;strokeColor=none;fillColor=none;fontSize=11;" vertex="1" parent="1">
                    <mxGeometry x="160.5" y="602" width="60" height="30" as="geometry"/>
                </mxCell>
                <mxCell id="78" value="Storage&lt;br&gt;Account" style="text;html=1;align=center;verticalAlign=middle;resizable=0;points=[];autosize=1;strokeColor=none;fillColor=none;fontSize=11;" vertex="1" parent="1">
                    <mxGeometry x="286.25" y="597" width="60" height="40" as="geometry"/>
                </mxCell>
                <mxCell id="79" value="blob &lt;br&gt;container" style="text;html=1;align=center;verticalAlign=middle;resizable=0;points=[];autosize=1;strokeColor=none;fillColor=none;fontSize=11;" vertex="1" parent="1">
                    <mxGeometry x="380" y="597" width="70" height="40" as="geometry"/>
                </mxCell>
                <mxCell id="80" value="" style="rounded=0;whiteSpace=wrap;html=1;shadow=0;glass=0;dashed=1;sketch=0;strokeColor=#FF0000;strokeWidth=2;fontSize=11;fillColor=none;gradientColor=none;" vertex="1" parent="1">
                    <mxGeometry x="80" y="552" width="150" height="80" as="geometry"/>
                </mxCell>
                <mxCell id="81" value="" style="rounded=0;whiteSpace=wrap;html=1;shadow=0;glass=0;dashed=1;sketch=0;strokeColor=#00FF00;strokeWidth=2;fontSize=11;fillColor=none;gradientColor=none;" vertex="1" parent="1">
                    <mxGeometry x="270" y="550" width="190" height="100" as="geometry"/>
                </mxCell>
            </root>
        </mxGraphModel>
    </diagram>
</mxfile>